<svg preserveAspectRatio="none" overflow="visible" style="display: block;" width="16" height="14.7279" viewBox="0 0 16 14.7279" fill="none" xmlns="http://www.w3.org/2000/svg">
<path id="Arrow 7" d="M1 6.36396C0.447715 6.36396 0 6.81168 0 7.36396C0 7.91625 0.447715 8.36396 1 8.36396V7.36396V6.36396ZM15.7071 8.07107C16.0976 7.68054 16.0976 7.04738 15.7071 6.65685L9.34315 0.292893C8.95262 -0.097631 8.31946 -0.097631 7.92893 0.292893C7.53841 0.683418 7.53841 1.31658 7.92893 1.70711L13.5858 7.36396L7.92893 13.0208C7.53841 13.4113 7.53841 14.0445 7.92893 14.435C8.31946 14.8256 8.95262 14.8256 9.34315 14.435L15.7071 8.07107ZM1 7.36396V8.36396H15V7.36396V6.36396H1V7.36396Z" fill="white"/>
</svg>
